/* XPM */
static const char* home24[] = {
/* columns rows colors chars-per-pixel */
"24 24 576 2",
"00 c #DCDCDC",
"10 c #DCDCDC",
"20 c #DCDCDC",
"30 c #DCDCDC",
"40 c #DCDCDC",
"50 c #DCDCDC",
"60 c #DCDCDC",
"70 c #DCDCDC",
"80 c #DCDCDC",
"90 c #DCDCDC",
":0 c #DCDCDC",
";0 c #DCDCDC",
"<0 c #DCDCDC",
"=0 c #DCDCDC",
">0 c #DCDCDC",
"?0 c #DCDCDC",
"@0 c #DCDCDC",
"A0 c #DCDCDC",
"B0 c #DCDCDC",
"C0 c #DCDCDC",
"D0 c #DCDCDC",
"E0 c #DCDCDC",
"F0 c #DCDCDC",
"G0 c #DCDCDC",
"01 c #DCDCDC",
"11 c #DCDCDC",
"21 c #DCDCDC",
"31 c #DCDCDC",
"41 c #DCDCDC",
"51 c #DCDCDC",
"61 c #DCDCDC",
"71 c #DCDCDC",
"81 c #DCDCDC",
"91 c #DCDCDC",
":1 c #DBDBDB",
";1 c #DBDBDB",
"<1 c #DBDBDB",
"=1 c #DBDBDB",
">1 c #DCDCDC",
"?1 c #DCDCDC",
"@1 c #DBDBDB",
"A1 c #DBDBDB",
"B1 c #DBDBDB",
"C1 c #DCDCDC",
"D1 c #DCDCDC",
"E1 c #DCDCDC",
"F1 c #DCDCDC",
"G1 c #DCDCDC",
"02 c #DCDCDC",
"12 c #DCDCDC",
"22 c #DCDCDC",
"32 c #DCDCDC",
"42 c #DCDCDC",
"52 c #DCDCDC",
"62 c #DCDCDC",
"72 c #DCDCDC",
"82 c #DCDCDC",
"92 c #DADADA",
":2 c #DCDCDC",
";2 c #D3D3D3",
"<2 c #D3D3D3",
"=2 c #DCDCDC",
">2 c #DADADA",
"?2 c #DCDCDC",
"@2 c #DCDCDC",
"A2 c #DCDCDC",
"B2 c #DCDCDC",
"C2 c #DCDCDC",
"D2 c #DCDCDC",
"E2 c #DCDCDC",
"F2 c #DCDCDC",
"G2 c #DCDCDC",
"03 c #DCDCDC",
"13 c #DCDCDC",
"23 c #DCDCDC",
"33 c #DCDCDC",
"43 c #DCDCDC",
"53 c #DCDCDC",
"63 c #DCDCDC",
"73 c #DCDCDC",
"83 c #DADADA",
"93 c #DCDCDC",
":3 c #CCCCCC",
";3 c #7E7E7E",
"<3 c #7F7F7F",
"=3 c #CCCCCC",
">3 c #DCDCDC",
"?3 c #D9D9D9",
"@3 c #D5D5D5",
"A3 c #D3D3D3",
"B3 c #D5D5D5",
"C3 c #DBDBDB",
"D3 c #DCDCDC",
"E3 c #DCDCDC",
"F3 c #DCDCDC",
"G3 c #DCDCDC",
"04 c #DCDCDC",
"14 c #DCDCDC",
"24 c #DCDCDC",
"34 c #DCDCDC",
"44 c #DCDCDC",
"54 c #DCDCDC",
"64 c #DCDCDC",
"74 c #D9D9D9",
"84 c #DCDCDC",
"94 c #C5C5C5",
":4 c #7C7C7C",
";4 c #8D8D8D",
"<4 c #8C8C8C",
"=4 c #7B7B7B",
">4 c #C9C9C9",
"?4 c #CECECE",
"@4 c #7B7B7B",
"A4 c #7C7C7C",
"B4 c #7E7E7E",
"C4 c #CFCFCF",
"D4 c #DCDCDC",
"E4 c #DBDBDB",
"F4 c #DCDCDC",
"G4 c #DCDCDC",
"05 c #DCDCDC",
"15 c #DCDCDC",
"25 c #DCDCDC",
"35 c #DCDCDC",
"45 c #DCDCDC",
"55 c #DCDCDC",
"65 c #DADADA",
"75 c #DCDCDC",
"85 c #BABABA",
"95 c #777777",
":5 c #909090",
";5 c #A3A3A3",
"<5 c #A3A3A3",
"=5 c #909090",
">5 c #797979",
"?5 c #B8B8B8",
"@5 c #B2B2B2",
"A5 c #979797",
"B5 c #8F8F8F",
"C5 c #D0D0D0",
"D5 c #DCDCDC",
"E5 c #DBDBDB",
"F5 c #DCDCDC",
"G5 c #DCDCDC",
"06 c #DCDCDC",
"16 c #DCDCDC",
"26 c #DCDCDC",
"36 c #DCDCDC",
"46 c #DBDBDB",
"56 c #DADADA",
"66 c #DCDCDC",
"76 c #B2B2B2",
"86 c #757575",
"96 c #919191",
":6 c #A5A5A5",
";6 c #CBCBCB",
"<6 c #CBCBCB",
"=6 c #A5A5A5",
">6 c #919191",
"?6 c #797979",
"@6 c #BABABA",
"A6 c #C3C3C3",
"B6 c #979797",
"C6 c #D0D0D0",
"D6 c #DCDCDC",
"E6 c #DBDBDB",
"F6 c #DCDCDC",
"G6 c #DCDCDC",
"07 c #DCDCDC",
"17 c #DCDCDC",
"27 c #DCDCDC",
"37 c #DBDBDB",
"47 c #DADADA",
"57 c #DCDCDC",
"67 c #AAAAAA",
"77 c #747474",
"87 c #929292",
"97 c #A6A6A6",
":7 c #CACACA",
";7 c #929292",
"<7 c #929292",
"=7 c #CACACA",
">7 c #A7A7A7",
"?7 c #939393",
"@7 c #7B7B7B",
"A7 c #B4B4B4",
"B7 c #C2C2C2",
"C7 c #D0D0D0",
"D7 c #DCDCDC",
"E7 c #DBDBDB",
"F7 c #DCDCDC",
"G7 c #DCDCDC",
"08 c #DCDCDC",
"18 c #DCDCDC",
"28 c #DBDBDB",
"38 c #DADADA",
"48 c #DCDCDC",
"58 c #A2A2A2",
"68 c #727272",
"78 c #919191",
"88 c #A9A9A9",
"98 c #C9C9C9",
":8 c #8E8E8E",
";8 c #848484",
"<8 c #848484",
"=8 c #8D8D8D",
">8 c #C9C9C9",
"?8 c #A9A9A9",
"@8 c #929292",
"A8 c #7A7A7A",
"B8 c #A9A9A9",
"C8 c #DCDCDC",
"D8 c #DBDBDB",
"E8 c #DBDBDB",
"F8 c #DCDCDC",
"G8 c #DCDCDC",
"09 c #DCDCDC",
"19 c #DBDBDB",
"29 c #DBDBDB",
"39 c #DCDCDC",
"49 c #979797",
"59 c #747474",
"69 c #919191",
"79 c #ABABAB",
"89 c #C5C5C5",
"99 c #858585",
":9 c #868686",
";9 c #969696",
"<9 c #969696",
"=9 c #868686",
">9 c #848484",
"?9 c #C4C4C4",
"@9 c #ABABAB",
"A9 c #919191",
"B9 c #777777",
"C9 c #999999",
"D9 c #DCDCDC",
"E9 c #DBDBDB",
"F9 c #DBDBDB",
"G9 c #DCDCDC",
"0: c #DBDBDB",
"1: c #DCDCDC",
"2: c #D9D9D9",
"3: c #8C8C8C",
"4: c #747474",
"5: c #909090",
"6: c #AFAFAF",
"7: c #C0C0C0",
"8: c #7C7C7C",
"9: c #868686",
":: c #949494",
";: c #929292",
"<: c #929292",
"=: c #949494",
">: c #868686",
"?: c #7C7C7C",
"@: c #BFBFBF",
"A: c #AFAFAF",
"B: c #909090",
"C: c #747474",
"D: c #8C8C8C",
"E: c #D9D9D9",
"F: c #DCDCDC",
"G: c #DBDBDB",
"0; c #DCDCDC",
"1; c #D5D5D5",
"2; c #858585",
"3; c #747474",
"4; c #8F8F8F",
"5; c #B2B2B2",
"6; c #BBBBBB",
"7; c #787878",
"8; c #868686",
"9; c #909090",
":; c #8F8F8F",
";; c #909090",
"<; c #909090",
"=; c #8F8F8F",
">; c #909090",
"?; c #868686",
"@; c #797979",
"A; c #BABABA",
"B; c #B2B2B2",
"C; c #8F8F8F",
"D; c #747474",
"E; c #858585",
"F; c #D5D5D5",
"G; c #DCDCDC",
"0< c #DCDCDC",
"1< c #9D9D9D",
"2< c #767676",
"3< c #8E8E8E",
"4< c #B1B1B1",
"5< c #B3B3B3",
"6< c #757575",
"7< c #868686",
"8< c #8D8D8D",
"9< c #8D8D8D",
":< c #8D8D8D",
";< c #8E8E8E",
"<< c #8E8E8E",
"=< c #8D8D8D",
">< c #8D8D8D",
"?< c #8D8D8D",
"@< c #868686",
"A< c #757575",
"B< c #B2B2B2",
"C< c #B1B1B1",
"D< c #8E8E8E",
"E< c #767676",
"F< c #9D9D9D",
"G< c #DCDCDC",
"0= c #DCDCDC",
"1= c #CECECE",
"2= c #9D9D9D",
"3= c #B4B4B4",
"4= c #D4D4D4",
"5= c #7C7C7C",
"6= c #848484",
"7= c #898989",
"8= c #8A8A8A",
"9= c #898989",
":= c #888888",
";= c #888888",
"<= c #888888",
"== c #888888",
">= c #898989",
"?= c #8A8A8A",
"@= c #8A8A8A",
"A= c #848484",
"B= c #7B7B7B",
"C= c #D4D4D4",
"D= c #B3B3B3",
"E= c #9D9D9D",
"F= c #CECECE",
"G= c #DCDCDC",
"0> c #DCDCDC",
"1> c #DCDCDC",
"2> c #D9D9D9",
"3> c #DCDCDC",
"4> c #CFCFCF",
"5> c #838383",
"6> c #878787",
"7> c #878787",
"8> c #868686",
"9> c #8C8C8C",
":> c #9F9F9F",
";> c #A0A0A0",
"<> c #A0A0A0",
"=> c #9F9F9F",
">> c #8C8C8C",
"?> c #868686",
"@> c #878787",
"A> c #878787",
"B> c #838383",
"C> c #CFCFCF",
"D> c #DCDCDC",
"E> c #D9D9D9",
"F> c #DCDCDC",
"G> c #DCDCDC",
"0? c #DCDCDC",
"1? c #DBDBDB",
"2? c #DBDBDB",
"3? c #DCDCDC",
"4? c #D0D0D0",
"5? c #828282",
"6? c #848484",
"7? c #848484",
"8? c #848484",
"9? c #8D8D8D",
":? c #D9D9D9",
";? c #DDDDDD",
"<? c #DDDDDD",
"=? c #D9D9D9",
">? c #8D8D8D",
"?? c #848484",
"@? c #848484",
"A? c #848484",
"B? c #828282",
"C? c #D0D0D0",
"D? c #DCDCDC",
"E? c #DBDBDB",
"F? c #DBDBDB",
"G? c #DCDCDC",
"0@ c #DCDCDC",
"1@ c #DCDCDC",
"2@ c #DBDBDB",
"3@ c #DCDCDC",
"4@ c #D0D0D0",
"5@ c #7F7F7F",
"6@ c #828282",
"7@ c #818181",
"8@ c #828282",
"9@ c #848484",
":@ c #D6D6D6",
";@ c #DCDCDC",
"<@ c #DCDCDC",
"=@ c #D6D6D6",
">@ c #848484",
"?@ c #828282",
"@@ c #818181",
"A@ c #828282",
"B@ c #7F7F7F",
"C@ c #D0D0D0",
"D@ c #DCDCDC",
"E@ c #DBDBDB",
"F@ c #DCDCDC",
"G@ c #DCDCDC",
"0A c #DCDCDC",
"1A c #DCDCDC",
"2A c #DBDBDB",
"3A c #DCDCDC",
"4A c #D0D0D0",
"5A c #7E7E7E",
"6A c #808080",
"7A c #7F7F7F",
"8A c #808080",
"9A c #828282",
":A c #D6D6D6",
";A c #DCDCDC",
"<A c #DCDCDC",
"=A c #D6D6D6",
">A c #828282",
"?A c #808080",
"@A c #7F7F7F",
"AA c #808080",
"BA c #7E7E7E",
"CA c #D0D0D0",
"DA c #DCDCDC",
"EA c #DBDBDB",
"FA c #DCDCDC",
"GA c #DCDCDC",
"0B c #DCDCDC",
"1B c #DCDCDC",
"2B c #DBDBDB",
"3B c #DCDCDC",
"4B c #CFCFCF",
"5B c #7D7D7D",
"6B c #7E7E7E",
"7B c #7E7E7E",
"8B c #7E7E7E",
"9B c #818181",
":B c #D6D6D6",
";B c #DCDCDC",
"<B c #DCDCDC",
"=B c #D6D6D6",
">B c #818181",
"?B c #7E7E7E",
"@B c #7E7E7E",
"AB c #7E7E7E",
"BB c #7D7D7D",
"CB c #CFCFCF",
"DB c #DCDCDC",
"EB c #DBDBDB",
"FB c #DCDCDC",
"GB c #DCDCDC",
"0C c #DCDCDC",
"1C c #DCDCDC",
"2C c #DBDBDB",
"3C c #DCDCDC",
"4C c #CFCFCF",
"5C c #777777",
"6C c #787878",
"7C c #787878",
"8C c #797979",
"9C c #7D7D7D",
":C c #D6D6D6",
";C c #DCDCDC",
"<C c #DCDCDC",
"=C c #D6D6D6",
">C c #7D7D7D",
"?C c #797979",
"@C c #787878",
"AC c #787878",
"BC c #777777",
"CC c #CFCFCF",
"DC c #DCDCDC",
"EC c #DBDBDB",
"FC c #DCDCDC",
"GC c #DCDCDC",
"0D c #DCDCDC",
"1D c #DCDCDC",
"2D c #DBDBDB",
"3D c #DCDCDC",
"4D c #D0D0D0",
"5D c #838383",
"6D c #868686",
"7D c #878787",
"8D c #858585",
"9D c #868686",
":D c #D6D6D6",
";D c #DCDCDC",
"<D c #DCDCDC",
"=D c #D6D6D6",
">D c #868686",
"?D c #858585",
"@D c #878787",
"AD c #868686",
"BD c #838383",
"CD c #D0D0D0",
"DD c #DCDCDC",
"ED c #DBDBDB",
"FD c #DCDCDC",
"GD c #DCDCDC",
"0E c #DCDCDC",
"1E c #DCDCDC",
"2E c #DCDCDC",
"3E c #DCDCDC",
"4E c #DADADA",
"5E c #D2D2D2",
"6E c #D4D4D4",
"7E c #D4D4D4",
"8E c #D4D4D4",
"9E c #D2D2D2",
":E c #DBDBDB",
";E c #DCDCDC",
"<E c #DCDCDC",
"=E c #DBDBDB",
">E c #D2D2D2",
"?E c #D4D4D4",
"@E c #D4D4D4",
"AE c #D4D4D4",
"BE c #D2D2D2",
"CE c #DADADA",
"DE c #DCDCDC",
"EE c #DCDCDC",
"FE c #DCDCDC",
"GE c #DCDCDC",
"0F c #DCDCDC",
"1F c #DCDCDC",
"2F c #DCDCDC",
"3F c #DCDCDC",
"4F c #DCDCDC",
"5F c #DCDCDC",
"6F c #DCDCDC",
"7F c #DCDCDC",
"8F c #DCDCDC",
"9F c #DCDCDC",
":F c #DCDCDC",
";F c #DCDCDC",
"<F c #DCDCDC",
"=F c #DCDCDC",
">F c #DCDCDC",
"?F c #DCDCDC",
"@F c #DCDCDC",
"AF c #DCDCDC",
"BF c #DCDCDC",
"CF c #DCDCDC",
"DF c #DCDCDC",
"EF c #DCDCDC",
"FF c #DCDCDC",
"GF c #DCDCDC",
"0G c #DCDCDC",
"1G c #DCDCDC",
"2G c #DCDCDC",
"3G c #DCDCDC",
"4G c #DCDCDC",
"5G c #DCDCDC",
"6G c #DCDCDC",
"7G c #DCDCDC",
"8G c #DCDCDC",
"9G c #DCDCDC",
":G c #DCDCDC",
";G c #DCDCDC",
"<G c #DCDCDC",
"=G c #DCDCDC",
">G c #DCDCDC",
"?G c #DCDCDC",
"@G c #DCDCDC",
"AG c #DCDCDC",
"BG c #DCDCDC",
"CG c #DCDCDC",
"DG c #DCDCDC",
"EG c #DCDCDC",
"FG c #DCDCDC",
"GG c #DCDCDC",
/* pixels */
"00102030405060708090:0;0<0=0>0?0@0A0B0C0D0E0F0G0",
"01112131415161718191:1;1<1=1>1?1@1A1B1C1D1E1F1G1",
"02122232425262728292:2;2<2=2>2?2@2A2B2C2D2E2F2G2",
"03132333435363738393:3;3<3=3>3?3@3A3B3C3D3E3F3G3",
"04142434445464748494:4;4<4=4>4?4@4A4B4C4D4E4F4G4",
"05152535455565758595:5;5<5=5>5?5@5A5B5C5D5E5F5G5",
"06162636465666768696:6;6<6=6>6?6@6A6B6C6D6E6F6G6",
"07172737475767778797:7;7<7=7>7?7@7A7B7C7D7E7F7G7",
"08182838485868788898:8;8<8=8>8?8@8A8B8C8D8E8F8G8",
"09192939495969798999:9;9<9=9>9?9@9A9B9C9D9E9F9G9",
"0:1:2:3:4:5:6:7:8:9:::;:<:=:>:?:@:A:B:C:D:E:F:G:",
"0;1;2;3;4;5;6;7;8;9;:;;;<;=;>;?;@;A;B;C;D;E;F;G;",
"0<1<2<3<4<5<6<7<8<9<:<;<<<=<><?<@<A<B<C<D<E<F<G<",
"0=1=2=3=4=5=6=7=8=9=:=;=<===>=?=@=A=B=C=D=E=F=G=",
"0>1>2>3>4>5>6>7>8>9>:>;><>=>>>?>@>A>B>C>D>E>F>G>",
"0?1?2?3?4?5?6?7?8?9?:?;?<?=?>???@?A?B?C?D?E?F?G?",
"0@1@2@3@4@5@6@7@8@9@:@;@<@=@>@?@@@A@B@C@D@E@F@G@",
"0A1A2A3A4A5A6A7A8A9A:A;A<A=A>A?A@AAABACADAEAFAGA",
"0B1B2B3B4B5B6B7B8B9B:B;B<B=B>B?B@BABBBCBDBEBFBGB",
"0C1C2C3C4C5C6C7C8C9C:C;C<C=C>C?C@CACBCCCDCECFCGC",
"0D1D2D3D4D5D6D7D8D9D:D;D<D=D>D?D@DADBDCDDDEDFDGD",
"0E1E2E3E4E5E6E7E8E9E:E;E<E=E>E?E@EAEBECEDEEEFEGE",
"0F1F2F3F4F5F6F7F8F9F:F;F<F=F>F?F@FAFBFCFDFEFFFGF",
"0G1G2G3G4G5G6G7G8G9G:G;G<G=G>G?G@GAGBGCGDGEGFGGG"
};
