/* XPM */
static const char* redo20[] = {
/* columns rows colors chars-per-pixel */
"20 20 400 2",
"00 c #DCDCDC",
"10 c #DCDCDC",
"20 c #DCDCDC",
"30 c #DCDCDC",
"40 c #DCDCDC",
"50 c #DCDCDC",
"60 c #DCDCDC",
"70 c #DCDCDC",
"80 c #DCDCDC",
"90 c #DCDCDC",
":0 c #DCDCDC",
";0 c #DCDCDC",
"<0 c #DCDCDC",
"=0 c #DCDCDC",
">0 c #DCDCDC",
"?0 c #DCDCDC",
"@0 c #DCDCDC",
"A0 c #DCDCDC",
"B0 c #DCDCDC",
"C0 c #DCDCDC",
"01 c #DCDCDC",
"11 c #DCDCDC",
"21 c #DCDCDC",
"31 c #DCDCDC",
"41 c #DCDCDC",
"51 c #DCDCDC",
"61 c #DCDCDC",
"71 c #DCDCDC",
"81 c #DCDCDC",
"91 c #DCDCDC",
":1 c #DCDCDC",
";1 c #DCDCDC",
"<1 c #DCDCDC",
"=1 c #DCDCDC",
">1 c #DCDCDC",
"?1 c #DCDCDC",
"@1 c #DCDCDC",
"A1 c #DCDCDC",
"B1 c #DCDCDC",
"C1 c #DCDCDC",
"02 c #DCDCDC",
"12 c #DCDCDC",
"22 c #DCDCDC",
"32 c #DCDCDC",
"42 c #DCDCDC",
"52 c #D0D2D9",
"62 c #8A9BCA",
"72 c #5A77C4",
"82 c #5C79C6",
"92 c #5B78C7",
":2 c #617CC6",
";2 c #95A5CE",
"<2 c #DCDCDC",
"=2 c #DCDCDC",
">2 c #DCDCDC",
"?2 c #DCDCDC",
"@2 c #DCDCDC",
"A2 c #D0D3DA",
"B2 c #DCDCDC",
"C2 c #DCDCDC",
"03 c #DCDCDC",
"13 c #DCDCDC",
"23 c #DCDCDC",
"33 c #DCDCDC",
"43 c #A2AED0",
"53 c #4668C3",
"63 c #597FD6",
"73 c #547FDB",
"83 c #4676D9",
"93 c #4576DA",
":3 c #4877DB",
";3 c #3E6CD3",
"<3 c #4168C7",
"=3 c #A2B0D2",
">3 c #DCDCDC",
"?3 c #DCDCDC",
"@3 c #D1D3DA",
"A3 c #2960D1",
"B3 c #DCDCDC",
"C3 c #DCDCDC",
"04 c #DCDCDC",
"14 c #DCDCDC",
"24 c #DCDCDC",
"34 c #A1ADCF",
"44 c #4C70CA",
"54 c #5E87DE",
"64 c #4978D9",
"74 c #4C7BDC",
"84 c #4979DD",
"94 c #4173DB",
":4 c #346AD6",
";4 c #356CD7",
"<4 c #3B70DD",
"=4 c #3060CE",
">4 c #7791CD",
"?4 c #D1D3DA",
"@4 c #5177CB",
"A4 c #2960D1",
"B4 c #DCDCDC",
"C4 c #DCDCDC",
"05 c #DCDCDC",
"15 c #DCDCDC",
"25 c #D0D2D9",
"35 c #4264C1",
"45 c #628ADE",
"55 c #5B85DD",
"65 c #456ECE",
"75 c #4F70C6",
"85 c #5576C7",
"95 c #3D65C5",
":5 c #3363D1",
";5 c #376EDC",
"<5 c #346DD7",
"=5 c #3D74DE",
">5 c #3769D6",
"?5 c #3966CA",
"@5 c #4578E0",
"A5 c #2960D1",
"B5 c #DCDCDC",
"C5 c #DCDCDC",
"06 c #DCDCDC",
"16 c #DCDCDC",
"26 c #97A5CE",
"36 c #5D81D6",
"46 c #638CE1",
"56 c #4065C5",
"66 c #ACB7D2",
"76 c #DCDCDC",
"86 c #DCDCDC",
"96 c #DCDCDC",
":6 c #879CCE",
";6 c #2759CB",
"<6 c #3970DD",
"=6 c #3A75DA",
">6 c #427AE1",
"?6 c #4479E2",
"@6 c #4D83E4",
"A6 c #2960D1",
"B6 c #DCDCDC",
"C6 c #DCDCDC",
"07 c #DCDCDC",
"17 c #DCDCDC",
"27 c #6580C6",
"37 c #658DE0",
"47 c #4970CF",
"57 c #A1AED1",
"67 c #DCDCDC",
"77 c #DCDCDC",
"87 c #DCDCDC",
"97 c #DCDCDC",
":7 c #DCDCDC",
";7 c #B8C2D6",
"<7 c #2B5ECF",
"=7 c #3D76E0",
">7 c #3D7ADD",
"?7 c #447FE1",
"@7 c #4883E2",
"A7 c #2960D1",
"B7 c #DCDCDC",
"C7 c #DCDCDC",
"08 c #DCDCDC",
"18 c #DCDCDC",
"28 c #607DC7",
"38 c #628BE1",
"48 c #5071C5",
"58 c #DCDCDC",
"68 c #DCDCDC",
"78 c #DCDCDC",
"88 c #DCDCDC",
"98 c #DCDCDC",
":8 c #DCDCDC",
";8 c #D0D3DA",
"<8 c #3A68CB",
"=8 c #3972E0",
">8 c #3475DD",
"?8 c #3476DD",
"@8 c #3878E0",
"A8 c #2960D1",
"B8 c #DCDCDC",
"C8 c #DCDCDC",
"09 c #DCDCDC",
"19 c #DCDCDC",
"29 c #476BC6",
"39 c #5A84DE",
"49 c #8197CB",
"59 c #DCDCDC",
"69 c #DCDCDC",
"79 c #DCDCDC",
"89 c #DCDCDC",
"99 c #DCDCDC",
":9 c #D0D3DA",
";9 c #4671CE",
"<9 c #3871E0",
"=9 c #3B79E3",
">9 c #397BE1",
"?9 c #3B7DE2",
"@9 c #3E7EE4",
"A9 c #2960D1",
"B9 c #DCDCDC",
"C9 c #DCDCDC",
"0: c #DCDCDC",
"1: c #DCDCDC",
"2: c #5E7CC9",
"3: c #4B76D6",
"4: c #A4B1D2",
"5: c #DCDCDC",
"6: c #DCDCDC",
"7: c #DCDCDC",
"8: c #DCDCDC",
"9: c #DCDCDC",
":: c #2960D1",
";: c #2960D1",
"<: c #2960D1",
"=: c #2960D1",
">: c #2960D1",
"?: c #2960D1",
"@: c #2960D1",
"A: c #2960D1",
"B: c #DCDCDC",
"C: c #DCDCDC",
"0; c #DCDCDC",
"1; c #DCDCDC",
"2; c #6380C8",
"3; c #3C68D0",
"4; c #A9B5D2",
"5; c #DCDCDC",
"6; c #DCDCDC",
"7; c #DCDCDC",
"8; c #DCDCDC",
"9; c #DCDCDC",
":; c #DCDCDC",
";; c #DCDCDC",
"<; c #DCDCDC",
"=; c #DCDCDC",
">; c #DCDCDC",
"?; c #DCDCDC",
"@; c #DCDCDC",
"A; c #DCDCDC",
"B; c #DCDCDC",
"C; c #DCDCDC",
"0< c #DCDCDC",
"1< c #DCDCDC",
"2< c #95A5CF",
"3< c #2A58C9",
"4< c #8498CC",
"5< c #DCDCDC",
"6< c #DCDCDC",
"7< c #DCDCDC",
"8< c #DCDCDC",
"9< c #DCDCDC",
":< c #DCDCDC",
";< c #DCDCDC",
"<< c #DCDCDC",
"=< c #DCDCDC",
">< c #DCDCDC",
"?< c #DCDCDC",
"@< c #DCDCDC",
"A< c #DCDCDC",
"B< c #DCDCDC",
"C< c #DCDCDC",
"0= c #DCDCDC",
"1= c #DCDCDC",
"2= c #CFD2D9",
"3= c #2955C3",
"4= c #6E88CA",
"5= c #DCDCDC",
"6= c #DCDCDC",
"7= c #DCDCDC",
"8= c #DCDCDC",
"9= c #DCDCDC",
":= c #DCDCDC",
";= c #DCDCDC",
"<= c #DCDCDC",
"== c #DCDCDC",
">= c #DCDCDC",
"?= c #DCDCDC",
"@= c #DCDCDC",
"A= c #DCDCDC",
"B= c #DCDCDC",
"C= c #DCDCDC",
"0> c #DCDCDC",
"1> c #DCDCDC",
"2> c #DCDCDC",
"3> c #7990CB",
"4> c #3C63C2",
"5> c #DCDCDC",
"6> c #DCDCDC",
"7> c #DCDCDC",
"8> c #DCDCDC",
"9> c #DCDCDC",
":> c #DCDCDC",
";> c #DCDCDC",
"<> c #DCDCDC",
"=> c #DCDCDC",
">> c #DCDCDC",
"?> c #DCDCDC",
"@> c #DCDCDC",
"A> c #DCDCDC",
"B> c #DCDCDC",
"C> c #DCDCDC",
"0? c #DCDCDC",
"1? c #DCDCDC",
"2? c #DCDCDC",
"3? c #CFD2D9",
"4? c #2350BE",
"5? c #C3C9D8",
"6? c #DCDCDC",
"7? c #DCDCDC",
"8? c #DCDCDC",
"9? c #DCDCDC",
":? c #DCDCDC",
";? c #DCDCDC",
"<? c #DCDCDC",
"=? c #DCDCDC",
">? c #DCDCDC",
"?? c #DCDCDC",
"@? c #DCDCDC",
"A? c #DCDCDC",
"B? c #DCDCDC",
"C? c #DCDCDC",
"0@ c #DCDCDC",
"1@ c #DCDCDC",
"2@ c #DCDCDC",
"3@ c #DCDCDC",
"4@ c #AAB7D4",
"5@ c #6F8ACB",
"6@ c #DCDCDC",
"7@ c #DCDCDC",
"8@ c #DCDCDC",
"9@ c #DCDCDC",
":@ c #DCDCDC",
";@ c #DCDCDC",
"<@ c #DCDCDC",
"=@ c #DCDCDC",
">@ c #DCDCDC",
"?@ c #DCDCDC",
"@@ c #DCDCDC",
"A@ c #DCDCDC",
"B@ c #DCDCDC",
"C@ c #DCDCDC",
"0A c #DCDCDC",
"1A c #DCDCDC",
"2A c #DCDCDC",
"3A c #DCDCDC",
"4A c #DCDCDC",
"5A c #B7C1D6",
"6A c #DCDCDC",
"7A c #DCDCDC",
"8A c #DCDCDC",
"9A c #DCDCDC",
":A c #DCDCDC",
";A c #DCDCDC",
"<A c #DCDCDC",
"=A c #DCDCDC",
">A c #DCDCDC",
"?A c #DCDCDC",
"@A c #DCDCDC",
"AA c #DCDCDC",
"BA c #DCDCDC",
"CA c #DCDCDC",
"0B c #DCDCDC",
"1B c #DCDCDC",
"2B c #DCDCDC",
"3B c #DCDCDC",
"4B c #DCDCDC",
"5B c #DCDCDC",
"6B c #DCDCDC",
"7B c #DCDCDC",
"8B c #DCDCDC",
"9B c #DCDCDC",
":B c #DCDCDC",
";B c #DCDCDC",
"<B c #DCDCDC",
"=B c #DCDCDC",
">B c #DCDCDC",
"?B c #DCDCDC",
"@B c #DCDCDC",
"AB c #DCDCDC",
"BB c #DCDCDC",
"CB c #DCDCDC",
"0C c #DCDCDC",
"1C c #DCDCDC",
"2C c #DCDCDC",
"3C c #DCDCDC",
"4C c #DCDCDC",
"5C c #DCDCDC",
"6C c #DCDCDC",
"7C c #DCDCDC",
"8C c #DCDCDC",
"9C c #DCDCDC",
":C c #DCDCDC",
";C c #DCDCDC",
"<C c #DCDCDC",
"=C c #DCDCDC",
">C c #DCDCDC",
"?C c #DCDCDC",
"@C c #DCDCDC",
"AC c #DCDCDC",
"BC c #DCDCDC",
"CC c #DCDCDC",
/* pixels */
"00102030405060708090:0;0<0=0>0?0@0A0B0C0",
"01112131415161718191:1;1<1=1>1?1@1A1B1C1",
"02122232425262728292:2;2<2=2>2?2@2A2B2C2",
"03132333435363738393:3;3<3=3>3?3@3A3B3C3",
"04142434445464748494:4;4<4=4>4?4@4A4B4C4",
"05152535455565758595:5;5<5=5>5?5@5A5B5C5",
"06162636465666768696:6;6<6=6>6?6@6A6B6C6",
"07172737475767778797:7;7<7=7>7?7@7A7B7C7",
"08182838485868788898:8;8<8=8>8?8@8A8B8C8",
"09192939495969798999:9;9<9=9>9?9@9A9B9C9",
"0:1:2:3:4:5:6:7:8:9:::;:<:=:>:?:@:A:B:C:",
"0;1;2;3;4;5;6;7;8;9;:;;;<;=;>;?;@;A;B;C;",
"0<1<2<3<4<5<6<7<8<9<:<;<<<=<><?<@<A<B<C<",
"0=1=2=3=4=5=6=7=8=9=:=;=<===>=?=@=A=B=C=",
"0>1>2>3>4>5>6>7>8>9>:>;><>=>>>?>@>A>B>C>",
"0?1?2?3?4?5?6?7?8?9?:?;?<?=?>???@?A?B?C?",
"0@1@2@3@4@5@6@7@8@9@:@;@<@=@>@?@@@A@B@C@",
"0A1A2A3A4A5A6A7A8A9A:A;A<A=A>A?A@AAABACA",
"0B1B2B3B4B5B6B7B8B9B:B;B<B=B>B?B@BABBBCB",
"0C1C2C3C4C5C6C7C8C9C:C;C<C=C>C?C@CACBCCC"
};
